#N canvas -4 -4 991 673 10;
#X obj -279 489 t b b;
#X floatatom -321 594 5 0 0 0 - - -, f 5;
#X floatatom -295 698 5 0 0 0 - - -, f 5;
#X msg -321 545 3.75;
#X floatatom -252 550 5 0 0 0 - - -, f 5;
#X obj -169 488 t b b;
#X floatatom -169 586 5 0 0 0 - - -, f 5;
#X floatatom -151 702 5 0 0 0 - - -, f 5;
#X msg -169 544 3.75;
#X floatatom -113 546 5 0 0 0 - - -, f 5;
#X obj -295 739 * 36;
#X obj -295 777 int;
#N canvas 461 139 450 483 octaves 0;
#X obj 48 24 inlet;
#X floatatom 48 55 5 0 0 0 - - -, f 5;
#X obj 47 89 / 7;
#X obj 92 89 % 7;
#X obj 45 125 int;
#X obj 46 159 * 12;
#X obj 49 318 +;
#X floatatom 51 348 5 0 0 0 - - -, f 5;
#X obj 50 379 outlet;
#X msg 96 227 0;
#X msg 131 228 2;
#X msg 168 227 4;
#X msg 204 229 5;
#X msg 241 228 7;
#X msg 280 227 9;
#X msg 317 226 11;
#X floatatom 91 266 5 0 0 0 - - -, f 5;
#X obj 116 146 select 1;
#X obj 73 191 select 0;
#X obj 166 167 select 2;
#X obj 202 122 select 3;
#X obj 227 156 select 4;
#X obj 292 123 select 5;
#X obj 330 163 select 6;
#X connect 0 0 1 0;
#X connect 1 0 2 0;
#X connect 1 0 3 0;
#X connect 2 0 4 0;
#X connect 3 0 17 0;
#X connect 3 0 18 0;
#X connect 3 0 19 0;
#X connect 3 0 20 0;
#X connect 3 0 21 0;
#X connect 3 0 22 0;
#X connect 3 0 23 0;
#X connect 4 0 5 0;
#X connect 5 0 6 0;
#X connect 6 0 7 0;
#X connect 7 0 8 0;
#X connect 9 0 16 0;
#X connect 10 0 16 0;
#X connect 11 0 16 0;
#X connect 12 0 16 0;
#X connect 13 0 16 0;
#X connect 14 0 16 0;
#X connect 15 0 16 0;
#X connect 16 0 6 1;
#X connect 17 0 10 0;
#X connect 18 0 9 0;
#X connect 19 0 11 0;
#X connect 20 0 12 0;
#X connect 21 0 13 0;
#X connect 22 0 14 0;
#X connect 23 0 15 0;
#X restore -296 818 pd octaves;
#X obj -296 853 + 36;
#X floatatom -296 890 5 0 0 0 - - -, f 5;
#X obj -151 744 * 36;
#X obj -151 776 int;
#N canvas 58 91 547 452 octaves 0;
#X obj 48 24 inlet;
#X floatatom 48 55 5 0 0 0 - - -, f 5;
#X obj 47 89 / 7;
#X obj 92 89 % 7;
#X obj 45 125 int;
#X obj 46 159 * 12;
#X obj 49 318 +;
#X floatatom 51 348 5 0 0 0 - - -, f 5;
#X obj 50 379 outlet;
#X msg 96 227 0;
#X msg 131 228 2;
#X msg 168 227 4;
#X msg 204 229 5;
#X msg 241 228 7;
#X msg 280 227 9;
#X msg 317 226 11;
#X floatatom 91 266 5 0 0 0 - - -, f 5;
#X obj 116 146 select 1;
#X obj 73 191 select 0;
#X obj 166 167 select 2;
#X obj 202 122 select 3;
#X obj 227 156 select 4;
#X obj 292 123 select 5;
#X obj 330 163 select 6;
#X connect 0 0 1 0;
#X connect 1 0 2 0;
#X connect 1 0 3 0;
#X connect 2 0 4 0;
#X connect 3 0 17 0;
#X connect 3 0 18 0;
#X connect 3 0 19 0;
#X connect 3 0 20 0;
#X connect 3 0 21 0;
#X connect 3 0 22 0;
#X connect 3 0 23 0;
#X connect 4 0 5 0;
#X connect 5 0 6 0;
#X connect 6 0 7 0;
#X connect 7 0 8 0;
#X connect 9 0 16 0;
#X connect 10 0 16 0;
#X connect 11 0 16 0;
#X connect 12 0 16 0;
#X connect 13 0 16 0;
#X connect 14 0 16 0;
#X connect 15 0 16 0;
#X connect 16 0 6 1;
#X connect 17 0 10 0;
#X connect 18 0 9 0;
#X connect 19 0 11 0;
#X connect 20 0 12 0;
#X connect 21 0 13 0;
#X connect 22 0 14 0;
#X connect 23 0 15 0;
#X restore -151 819 pd octaves;
#X obj -151 853 + 36;
#X floatatom -151 890 5 0 0 0 - - -, f 5;
#X floatatom -279 446 5 0 0 0 - - -, f 5;
#X floatatom -169 446 5 0 0 0 - - -, f 5;
#X obj -279 316 spigot;
#X obj -169 318 spigot;
#X obj -279 130 trigger anything bang;
#X obj -156 166 i;
#X obj -164 239 t f f f;
#X obj -169 361 f;
#X obj -128 360 + 1;
#X obj -279 364 f;
#X obj -238 364 + 1;
#X obj -91 930 mtof;
#X obj -91 956 nbx 5 14 -1e+037 1e+037 0 0 empty empty Hz 60 7 0 10
-260097 -1 -1 195.998 256;
#X obj -91 978 osc~;
#X obj -321 626 *;
#X obj -295 664 *;
#X obj -252 587 * -1;
#X obj -252 624 + 1;
#X obj -169 620 *;
#X obj -148 661 *;
#X obj -113 586 * -1;
#X obj -113 621 + 1;
#X obj -8 9 loadbang;
#X obj -8 41 bng 15 250 50 0 empty empty empty 17 7 0 10 -262144 -1
-1;
#X obj -279 97 metro 160;
#X msg -227 517 0.925;
#X msg -85 511 0.924999;
#N canvas 0 50 450 300 equel0 0;
#X obj 19 93 select 0 1;
#X floatatom 23 155 5 0 0 0 - - -, f 5;
#X floatatom 20 69 5 0 0 0 - - -, f 5;
#X msg 19 123 1;
#X msg 49 122 0;
#X obj 21 32 inlet;
#X obj 36 179 outlet;
#X connect 0 0 3 0;
#X connect 0 1 4 0;
#X connect 1 0 6 0;
#X connect 2 0 0 0;
#X connect 3 0 1 0;
#X connect 4 0 1 0;
#X connect 5 0 2 0;
#X restore -164 200 pd equel0;
#N canvas 0 50 450 300 equel0 0;
#X obj 19 93 select 0 1;
#X floatatom 23 155 5 0 0 0 - - -, f 5;
#X floatatom 20 69 5 0 0 0 - - -, f 5;
#X msg 19 123 1;
#X msg 49 122 0;
#X obj 21 32 inlet;
#X obj 36 179 outlet;
#X connect 0 0 3 0;
#X connect 0 1 4 0;
#X connect 1 0 6 0;
#X connect 2 0 0 0;
#X connect 3 0 1 0;
#X connect 4 0 1 0;
#X connect 5 0 2 0;
#X restore -136 276 pd equel0;
#X obj -279 397 mod 200;
#X obj -169 399 mod 200;
#X obj -112 1008 dac~;
#X obj -334 928 mtof;
#X obj -334 956 nbx 5 14 -1e+037 1e+037 0 0 empty empty Hz 60 7 0 10
-260097 -1 -1 329.628 256;
#X obj -334 983 osc~;
#X obj -335 1011 dac~;
#X msg -279 63 1;
#X obj -225 959 send midiout;
#X connect 0 0 3 0;
#X connect 0 1 4 0;
#X connect 1 0 34 0;
#X connect 2 0 10 0;
#X connect 3 0 1 0;
#X connect 4 0 34 1;
#X connect 4 0 36 0;
#X connect 5 0 8 0;
#X connect 5 1 9 0;
#X connect 6 0 38 0;
#X connect 7 0 15 0;
#X connect 8 0 6 0;
#X connect 9 0 38 1;
#X connect 9 0 40 0;
#X connect 10 0 11 0;
#X connect 11 0 12 0;
#X connect 12 0 13 0;
#X connect 13 0 14 0;
#X connect 14 0 52 0;
#X connect 14 0 57 0;
#X connect 15 0 16 0;
#X connect 16 0 17 0;
#X connect 17 0 18 0;
#X connect 18 0 19 0;
#X connect 19 0 31 0;
#X connect 19 0 57 0;
#X connect 20 0 0 0;
#X connect 21 0 5 0;
#X connect 22 0 29 0;
#X connect 23 0 27 0;
#X connect 24 0 22 0;
#X connect 24 0 23 0;
#X connect 24 1 25 0;
#X connect 25 0 47 0;
#X connect 26 0 22 1;
#X connect 26 1 48 0;
#X connect 26 2 25 1;
#X connect 27 0 28 0;
#X connect 27 0 50 0;
#X connect 28 0 27 1;
#X connect 29 0 30 0;
#X connect 29 0 49 0;
#X connect 30 0 29 1;
#X connect 31 0 32 0;
#X connect 32 0 33 0;
#X connect 33 0 51 1;
#X connect 34 0 35 0;
#X connect 35 0 2 0;
#X connect 35 0 4 0;
#X connect 36 0 37 0;
#X connect 37 0 35 1;
#X connect 38 0 39 0;
#X connect 39 0 7 0;
#X connect 39 0 9 0;
#X connect 40 0 41 0;
#X connect 41 0 39 1;
#X connect 42 0 43 0;
#X connect 43 0 46 0;
#X connect 43 0 45 0;
#X connect 43 0 56 0;
#X connect 44 0 24 0;
#X connect 45 0 4 0;
#X connect 46 0 9 0;
#X connect 47 0 26 0;
#X connect 48 0 23 1;
#X connect 49 0 20 0;
#X connect 50 0 21 0;
#X connect 52 0 53 0;
#X connect 53 0 54 0;
#X connect 54 0 55 0;
#X connect 56 0 44 0;
